<?xml version="1.0" standalone="no"?>
<!DOCTYPE svg PUBLIC "-//W3C//DTD SVG 20010904//EN"
 "http://www.w3.org/TR/2001/REC-SVG-20010904/DTD/svg10.dtd">
<svg version="1.0" xmlns="http://www.w3.org/2000/svg"
 width="230.000000pt" height="47.000000pt" viewBox="0 0 230.000000 47.000000"
 preserveAspectRatio="xMidYMid meet">
<metadata>
Created by potrace 1.16, written by Peter Selinger 2001-2019
</metadata>
<g transform="translate(0.000000,47.000000) scale(0.028049,-0.019502)"
fill="#000000" stroke="none">
<path d="M1811 1990 c-329 -45 -586 -272 -672 -595 -30 -111 -30 -279 0 -390
97 -362 401 -597 771 -597 446 0 792 346 792 792 0 315 -173 588 -455 720
-126 59 -304 88 -436 70z m253 -140 c191 -49 346 -174 436 -352 55 -109 74
-204 67 -337 -8 -177 -70 -316 -197 -441 -117 -115 -258 -180 -410 -188 -167
-9 -310 48 -422 167 -138 146 -182 326 -121 493 47 129 112 201 229 255 83 38
205 44 286 13 75 -28 150 -96 185 -168 24 -48 28 -69 28 -137 0 -96 -21 -142
-89 -202 -111 -97 -278 -76 -340 42 -39 75 -19 171 44 209 36 20 52 21 22 0
-50 -35 -64 -100 -35 -161 21 -46 67 -73 121 -73 52 0 91 19 125 60 68 80 30
207 -76 262 -88 44 -212 0 -272 -96 -61 -100 -31 -235 73 -327 152 -133 403
-63 506 141 60 121 57 231 -9 366 -64 131 -194 235 -336 269 -82 19 -131 19
-227 -1 -138 -29 -235 -79 -341 -179 -56 -52 -62 -46 -23 30 87 172 265 315
447 359 89 21 237 20 329 -4z"/>
<path d="M5612 1279 c-176 -91 -372 -305 -372 -406 0 -35 32 -81 67 -94 38
-14 72 10 176 130 93 105 143 151 166 151 15 0 15 -1 -15 -58 -45 -87 -45
-168 1 -198 34 -22 56 -12 135 63 l69 64 -6 -54 c-5 -48 -3 -57 17 -77 l23
-23 16 22 c98 139 304 341 348 341 22 0 14 -32 -27 -108 -54 -100 -66 -148
-47 -195 9 -21 28 -42 47 -52 46 -24 89 -5 175 76 40 38 75 69 77 69 3 0 4
-10 1 -22 -5 -31 36 -100 69 -116 57 -27 120 26 260 216 49 67 94 122 100 122
14 0 1 -51 -38 -150 -52 -131 -77 -160 -195 -239 -216 -143 -265 -237 -160
-308 19 -13 46 -23 61 -23 74 0 185 137 307 380 22 43 48 71 121 129 51 40 91
76 88 78 -2 3 -38 -21 -80 -52 -42 -31 -76 -52 -76 -47 0 5 11 39 24 74 37 97
50 182 34 216 -26 53 -42 43 -208 -127 -86 -89 -162 -161 -168 -161 -35 0 0
74 100 208 38 52 72 100 74 107 6 15 -28 40 -69 49 -21 5 -27 3 -25 -7 2 -8
-27 -50 -63 -93 -36 -44 -81 -102 -100 -130 -50 -75 -217 -224 -250 -224 -22
0 -4 62 45 154 65 122 71 145 52 191 -35 82 -93 66 -244 -66 -52 -44 -96 -79
-98 -76 -3 3 15 34 39 70 49 71 64 124 46 159 -25 46 -69 64 -62 26 6 -37
-160 -267 -264 -365 -49 -46 -94 -83 -100 -83 -25 0 -12 44 42 138 42 73 54
103 50 122 -10 38 -24 50 -60 50 -36 0 -64 -19 -218 -147 -48 -40 -92 -73 -98
-73 -20 0 -20 31 1 64 34 56 154 160 229 200 71 37 118 45 139 24 25 -25 23 3
-3 47 -23 40 -56 65 -84 65 -5 0 -36 -14 -69 -31z m1096 -579 c-36 -62 -120
-162 -158 -188 -46 -31 -76 -26 -73 12 3 43 49 94 143 159 101 69 120 73 88
17z"/>
<path d="M3930 1272 c0 -10 -34 -67 -76 -127 -120 -173 -154 -259 -124 -316
11 -19 40 -27 40 -10 0 35 232 302 297 342 51 32 63 13 29 -43 -15 -24 -43
-68 -62 -98 -62 -98 -67 -170 -16 -211 25 -19 28 -20 37 -3 75 129 209 281
305 344 96 63 105 26 26 -103 -94 -154 -95 -217 -3 -252 40 -15 47 -15 80 -2
20 9 56 34 81 58 25 23 46 39 46 36 0 -3 -18 -43 -40 -89 -54 -111 -70 -195
-47 -243 22 -46 61 -65 85 -42 15 16 15 17 -6 17 -15 0 -22 6 -22 20 0 50 165
325 260 433 50 57 146 127 221 162 51 24 129 34 129 17 0 -15 -64 -68 -180
-152 -133 -95 -166 -124 -187 -163 -31 -60 -12 -59 132 3 243 105 346 194 316
273 -13 33 -59 75 -91 82 -38 8 -112 -18 -196 -70 -41 -26 -77 -45 -80 -42 -3
3 2 19 11 37 29 56 -1 112 -72 134 -20 6 -23 4 -23 -19 0 -37 -144 -255 -217
-328 -67 -66 -118 -101 -134 -91 -17 10 -3 58 48 169 70 149 63 229 -20 229
-46 0 -128 -42 -211 -109 -38 -30 -71 -53 -73 -51 -2 2 1 23 7 48 32 124 -68
138 -200 27 -28 -23 -52 -40 -55 -37 -3 3 2 20 11 38 23 44 30 116 14 135 -17
21 -40 19 -40 -3z"/>
<path d="M3048 1231 c-77 -59 -148 -137 -200 -222 -45 -73 -55 -124 -34 -172
44 -107 186 -91 358 41 37 29 69 52 70 52 2 0 2 -21 0 -46 -5 -53 19 -86 73
-104 88 -29 299 112 350 233 25 59 20 94 -16 116 -18 11 -26 22 -20 25 19 12
12 37 -21 67 -57 54 -59 54 -135 -11 -39 -32 -99 -94 -133 -137 -35 -43 -83
-93 -109 -111 -144 -104 -342 -180 -366 -142 -21 34 136 229 224 278 l41 23 0
-38 0 -38 37 37 c48 48 50 90 7 150 -16 24 -37 44 -45 46 -8 1 -45 -20 -81
-47z m602 -145 c0 -29 -62 -110 -122 -159 -53 -43 -157 -107 -175 -107 -38 0
1 75 86 164 88 92 136 126 178 126 28 0 33 -3 33 -24z"/>
</g>
</svg>
